<?xml version="1.0" standalone="no"?>
<!DOCTYPE svg PUBLIC "-//W3C//DTD SVG 20010904//EN"
 "http://www.w3.org/TR/2001/REC-SVG-20010904/DTD/svg10.dtd">
<svg version="1.0" xmlns="http://www.w3.org/2000/svg"
 width="512.000000pt" height="512.000000pt" viewBox="0 0 512.000000 512.000000"
 preserveAspectRatio="xMidYMid meet">
<metadata>
Created by potrace 1.11, written by Peter Selinger 2001-2013
</metadata>
<g transform="translate(0.000000,512.000000) scale(0.100000,-0.100000)"
fill="#000000" stroke="none">
<path d="M2416 4469 c-215 -223 -400 -445 -573 -686 l-22 -31 -223 112 c-282
141 -752 335 -770 318 -13 -12 -149 -431 -184 -565 -105 -403 -148 -705 -148
-1052 0 -270 19 -441 73 -646 89 -340 268 -677 454 -852 244 -231 539 -396
842 -471 194 -48 313 -60 585 -61 502 0 689 21 940 107 234 80 470 220 652
385 147 133 246 273 359 508 255 530 284 1203 87 1990 -69 278 -194 655 -217
655 -18 0 -284 -100 -429 -161 -129 -55 -353 -164 -481 -235 -81 -44 -105 -54
-111 -43 -5 8 -55 75 -112 151 -138 182 -285 352 -464 537 l-149 154 -109
-114z"/>
</g>
</svg>
